<?xml version="1.0" encoding="UTF-8"?>
<svg id="Layer_2" data-name="Layer 2" xmlns="http://www.w3.org/2000/svg" viewBox="0 0 152.93 137.15">
  <defs>
    <style>
      .cls-1 {
        fill: #000;
        stroke-width: 0px;
      }
    </style>
  </defs>
  <g id="Layer_1-2" data-name="Layer 1">
    <g>
      <polygon class="cls-1" points="102.14 0 4.04 0 4.04 23.08 67.52 23.08 0 116.96 0 135.23 100.61 135.23 100.61 112.15 34.62 112.15 102.14 18.27 102.14 0"/>
      <path class="cls-1" d="M137.34,137.15c-4.62,0-8.4-1.54-11.35-4.62-2.95-3.08-4.42-6.86-4.42-11.35s1.47-8.27,4.42-11.35c2.95-3.08,6.73-4.62,11.35-4.62s8.21,1.54,11.16,4.62c2.95,3.08,4.42,6.86,4.42,11.35s-1.48,8.27-4.42,11.35c-2.95,3.08-6.67,4.62-11.16,4.62Z"/>
    </g>
  </g>
</svg>